<svg width="18" height="8" viewBox="0 0 18 8" fill="none" xmlns="http://www.w3.org/2000/svg">
<path d="M0.658093 5.33422L3.56091 7.81251C3.63064 7.87192 3.7136 7.91908 3.80501 7.95125C3.89641 7.98343 3.99445 8 4.09347 8C4.19249 8 4.29053 7.98343 4.38193 7.95125C4.47334 7.91908 4.5563 7.87192 4.62603 7.81251C4.76573 7.69376 4.84415 7.53311 4.84415 7.36566C4.84415 7.19821 4.76573 7.03756 4.62603 6.91881L1.95574 4.64334L17.2499 4.64334C17.4489 4.64334 17.6396 4.57656 17.7803 4.4577C17.921 4.33883 18 4.17761 18 4.00951V4.00951C18 3.84141 17.921 3.68019 17.7803 3.56132C17.6396 3.44245 17.4489 3.37568 17.2499 3.37568L1.91073 3.37567L4.62603 1.08753C4.69633 1.02861 4.75214 0.958507 4.79022 0.881268C4.8283 0.80403 4.8479 0.721184 4.8479 0.63751C4.8479 0.553837 4.8283 0.470991 4.79022 0.393752C4.75214 0.316514 4.69633 0.246411 4.62603 0.187487C4.5563 0.128079 4.47334 0.0809257 4.38193 0.0487463C4.29053 0.0165675 4.19249 7.00258e-07 4.09347 6.91601e-07C3.99445 6.82945e-07 3.89641 0.0165674 3.80501 0.0487463C3.7136 0.0809256 3.63064 0.128079 3.56091 0.187487L0.658093 2.64676C0.236695 3.0033 3.94575e-07 3.48659 3.50522e-07 3.99049C3.0647e-07 4.49439 0.236695 4.97769 0.658093 5.33422Z" fill="#f7f7f9"/>
</svg>
